# xmcd CD database file
#
# Track frame offsets:
#	150
#	16839
#	27135
#	43848
#	56419
#	69789
#	80417
#	94567
#	107416
#	119501
#	131596
#	152925
#	162221
#	173890
#	183781
#	195913
#	210057
#
# Disc length: 2900 seconds
#
# Revision: 0
# Processed by: cddbd v1.5.2PL0 Copyright (c) Steve Scherf et al.
# Submitted via: CDex 1.70beta2
#
DISCID=c60b5211
DTITLE=Sestka Sextett - Sestka Sextett - CD "B"
DYEAR=2003
DGENRE=Country
TTITLE0=Komm nicht zu uns (Es ist schön)
TTITLE1=Unter den Lindenbaum
TTITLE2=Momentpolka
TTITLE3=Zirkus Renz
TTITLE4=Kirmespolka
TTITLE5=Hinter den Berg
TTITLE6=Im Keller
TTITLE7=Der Schiffsjunge
TTITLE8=Johannapolka
TTITLE9=Trommlerpolka
TTITLE10=Karneval in Venedig
TTITLE11=Hallopolka
TTITLE12=Mainacht
TTITLE13=Guter Hornist
TTITLE14=Klein Schiff
TTITLE15=Mädchen aus Hradiste
TTITLE16=Musik, Musik
EXTD=YEAR: 2003
EXTT0=
EXTT1=
EXTT2=
EXTT3=
EXTT4=
EXTT5=
EXTT6=
EXTT7=
EXTT8=
EXTT9=
EXTT10=
EXTT11=
EXTT12=
EXTT13=
EXTT14=
EXTT15=
EXTT16=
PLAYORDER=
